<?xml version="1.0" standalone="no"?>
<!DOCTYPE svg PUBLIC "-//W3C//DTD SVG 20010904//EN"
 "http://www.w3.org/TR/2001/REC-SVG-20010904/DTD/svg10.dtd">
<svg version="1.0" xmlns="http://www.w3.org/2000/svg"
 width="512.000000pt" height="512.000000pt" viewBox="0 0 512.000000 512.000000"
 preserveAspectRatio="xMidYMid meet">

<g transform="translate(0.000000,512.000000) scale(0.100000,-0.100000)"
fill="#000000" stroke="none">
<path d="M1830 5098 c-36 -13 -94 -43 -129 -67 -137 -93 -191 -181 -199 -317
-6 -114 12 -165 107 -308 l80 -119 -38 -43 c-135 -154 -168 -389 -80 -567 11
-23 156 -246 322 -495 228 -343 298 -455 287 -462 -25 -15 -200 -84 -203 -79
-2 2 -84 204 -183 449 -191 476 -203 498 -288 543 -30 16 -58 21 -106 21 -59
0 -88 -10 -315 -103 -281 -114 -338 -145 -401 -214 -98 -109 -138 -218 -138
-374 l1 -102 -71 -30 c-39 -16 -91 -37 -116 -47 -193 -76 -299 -274 -246 -460
49 -169 126 -273 245 -331 49 -24 68 -27 151 -28 92 0 99 2 229 54 l135 54 15
-24 c8 -13 40 -50 72 -81 124 -124 315 -177 483 -133 32 8 277 103 544 211
268 108 495 199 505 201 16 5 17 -9 17 -196 l0 -201 -482 0 c-302 0 -497 -4
-520 -10 -59 -17 -120 -69 -150 -129 l-28 -55 0 -296 c0 -321 5 -358 57 -468
40 -84 143 -183 234 -227 41 -19 91 -38 112 -41 l37 -7 0 -142 c0 -115 4 -155
20 -206 38 -120 129 -211 249 -249 76 -24 219 -27 299 -6 108 29 201 108 250
214 25 53 27 68 30 224 l4 167 38 6 c77 13 180 72 249 143 73 74 113 147 138
248 l16 65 38 -37 c32 -31 73 -49 300 -131 144 -51 292 -99 330 -105 91 -16
200 1 294 46 78 36 180 124 210 180 11 20 22 36 26 36 4 0 65 -21 135 -47 114
-41 139 -46 214 -47 75 -1 93 3 150 30 117 55 171 118 222 257 54 149 47 269
-24 379 -57 90 -140 141 -327 203 l-83 27 6 55 c19 158 -62 349 -192 450 l-48
38 60 30 c58 29 68 40 223 250 181 244 216 305 239 415 32 155 -3 285 -122
447 -15 22 -14 26 56 120 104 140 133 206 134 302 0 42 -5 94 -12 116 -32 109
-137 220 -272 288 -60 30 -72 32 -165 32 -163 0 -229 -41 -366 -226 l-79 -107
-68 23 c-190 66 -394 22 -531 -114 -31 -31 -209 -264 -395 -518 -185 -255
-339 -463 -342 -463 -5 0 -204 297 -204 305 0 3 182 126 404 274 222 148 413
281 424 296 38 47 55 109 50 179 l-4 64 -164 248 c-175 262 -228 322 -326 370
-119 58 -267 71 -389 33 -37 -11 -68 -19 -70 -17 -1 2 -34 50 -72 108 -118
177 -205 238 -351 246 -63 4 -89 1 -142 -18z m520 -550 c0 -116 -39 -182 -151
-259 -110 -75 -202 -89 -295 -45 -28 13 -55 29 -58 35 -8 12 483 343 496 335
4 -3 8 -33 8 -66z m1548 -545 c47 -14 53 -19 47 -37 -17 -55 -17 -164 0 -221
18 -63 74 -156 107 -180 12 -7 18 -20 15 -27 -3 -7 -55 -80 -116 -163 -90
-122 -111 -156 -109 -180 4 -36 40 -58 72 -44 12 6 73 81 136 168 l115 158 59
-28 c111 -53 246 -46 355 18 l44 26 19 -24 c11 -13 34 -53 51 -89 30 -61 32
-72 32 -175 0 -93 -3 -118 -22 -159 -13 -26 -96 -147 -184 -268 -169 -230
-188 -248 -258 -248 -36 0 -59 15 -486 329 -181 134 -330 248 -329 254 1 7 53
83 118 170 64 87 116 167 116 178 0 22 -34 59 -54 59 -25 0 -55 -33 -176 -200
-66 -91 -157 -215 -202 -276 l-82 -112 -51 37 c-190 137 -213 156 -206 166 4
5 126 172 271 370 144 198 281 379 304 403 99 104 260 140 414 95z m419 -246
c128 -93 230 -173 228 -177 -15 -24 -99 -50 -160 -50 -80 0 -119 15 -210 84
-92 70 -128 132 -129 226 -1 74 8 105 26 94 7 -4 118 -84 245 -177z m-1340
-830 l123 -89 -63 -82 c-39 -50 -71 -82 -85 -84 -14 -2 -51 18 -107 58 -82 60
-85 64 -85 102 0 22 -4 47 -10 57 -7 14 0 31 36 80 28 36 51 58 57 54 7 -3 67
-47 134 -96z m731 -157 c176 -129 319 -236 318 -237 -4 -5 -796 283 -796 290
0 17 133 188 145 185 7 -2 157 -109 333 -238z m-1110 150 c28 -44 52 -91 52
-105 0 -21 -19 -38 -114 -101 -86 -57 -119 -74 -135 -69 -17 5 -82 90 -125
162 -4 8 39 43 126 102 73 49 135 90 138 90 3 0 29 -35 58 -79z m-1783 -164
c142 -66 232 -298 169 -436 -23 -50 -73 -105 -85 -93 -7 8 -207 501 -216 536
-8 26 70 23 132 -7z m2393 -50 c3 -4 -99 -289 -108 -299 -4 -5 -49 6 -100 24
-102 36 -123 57 -102 104 10 21 18 25 55 25 56 0 98 28 155 103 39 52 48 58
71 52 14 -4 27 -8 29 -9z m-447 -51 l48 -36 -15 -41 c-8 -22 -14 -49 -14 -59
0 -13 -7 -19 -22 -19 -19 0 -28 13 -55 82 -24 61 -30 85 -22 95 17 19 26 17
80 -22z m993 -146 c231 -83 443 -163 470 -176 73 -37 139 -104 177 -181 28
-58 34 -80 37 -158 l4 -91 -65 -5 c-118 -10 -236 -85 -294 -187 -15 -25 -27
-47 -28 -48 -1 -2 -82 26 -181 62 -182 66 -221 74 -242 53 -16 -16 -15 -63 2
-81 8 -7 95 -42 193 -77 l178 -64 0 -110 c0 -99 3 -117 26 -167 15 -32 49 -80
77 -108 l49 -52 -27 -37 c-86 -119 -241 -185 -380 -163 -53 9 -468 151 -546
187 -42 20 -78 86 -71 129 4 24 261 754 316 896 5 14 33 7 196 -52 105 -38
196 -69 204 -69 40 0 69 73 38 98 -7 6 -159 63 -337 127 -179 64 -328 119
-332 123 -9 9 94 302 106 302 5 0 198 -68 430 -151z m-1150 21 c16 -39 25 -78
21 -89 -5 -18 -37 -34 -151 -80 l-52 -20 -20 52 c-11 29 -29 75 -40 103 l-21
52 33 -10 c45 -14 92 -4 146 32 25 16 48 30 51 30 3 0 18 -31 33 -70z m259
-163 c24 -13 54 -26 66 -30 19 -5 21 -12 21 -91 l0 -86 -82 0 c-46 0 -120 -3
-165 -7 l-83 -6 0 75 c0 68 2 76 23 85 13 6 36 27 53 46 25 31 35 36 76 36 31
1 62 -7 91 -22z m359 -134 l126 -45 -18 -51 c-62 -179 -262 -733 -266 -736 -2
-2 -4 197 -4 443 0 423 1 448 18 441 9 -4 74 -27 144 -52z m-272 -651 c0 -289
-4 -480 -11 -518 -24 -131 -107 -241 -221 -294 -104 -47 -99 -47 -130 19 -50
108 -155 189 -273 213 l-54 10 -3 205 c-3 189 -4 206 -22 219 -25 18 -57 18
-82 0 -18 -14 -19 -26 -16 -218 l3 -204 -63 -13 c-35 -7 -85 -24 -111 -39 -63
-34 -148 -127 -171 -185 -16 -43 -20 -46 -44 -41 -102 25 -221 122 -266 218
-39 82 -48 168 -44 438 3 217 5 246 22 274 40 66 23 64 560 64 l486 0 0 -209
c0 -206 0 -210 22 -225 32 -23 54 -20 78 11 21 26 21 36 20 253 -1 124 -1 282
-1 353 l1 127 160 0 160 0 0 -458z m1480 201 c0 -4 -46 -135 -102 -291 l-102
-285 -41 46 c-51 56 -80 138 -72 206 3 25 19 82 36 127 38 98 93 157 173 185
54 19 108 25 108 12z m-2093 -908 c73 -31 139 -98 158 -162 l6 -23 -305 0
c-168 0 -306 3 -306 8 0 4 14 30 30 59 33 58 77 96 136 117 55 20 233 21 281
1z"/>
</g>
</svg>
